<svg width="30" height="29" viewBox="0 0 30 29" fill="none" xmlns="http://www.w3.org/2000/svg">
<circle cx="12" cy="17" r="12" fill="#EDF2F7"/>
<path d="M8.95086 21.6052C9.50376 21.6052 9.95675 22.0678 9.95675 22.6393C9.95675 23.204 9.50376 23.6666 8.95086 23.6666C8.3913 23.6666 7.93832 23.204 7.93832 22.6393C7.93832 22.0678 8.3913 21.6052 8.95086 21.6052ZM16.445 21.6052C16.9979 21.6052 17.4509 22.0678 17.4509 22.6393C17.4509 23.204 16.9979 23.6666 16.445 23.6666C15.8855 23.6666 15.4325 23.204 15.4325 22.6393C15.4325 22.0678 15.8855 21.6052 16.445 21.6052ZM5.85214 10.3334L5.92002 10.3391L7.50879 10.5834C7.73528 10.6249 7.90181 10.8147 7.9218 11.046L8.04837 12.57C8.06835 12.7884 8.24155 12.9516 8.45472 12.9516H17.451C17.8574 12.9516 18.1238 13.0945 18.3903 13.4075C18.6568 13.7204 18.7034 14.1694 18.6434 14.577L18.0106 19.04C17.8907 19.8979 17.1713 20.5299 16.3252 20.5299H9.05758C8.1716 20.5299 7.43884 19.8367 7.36556 18.9386L6.75271 11.5222L5.74683 11.3454C5.48037 11.2977 5.29385 11.0324 5.34048 10.7603C5.38711 10.482 5.6469 10.2976 5.92002 10.3391L5.85214 10.3334ZM15.2594 15.4682H13.4142C13.1344 15.4682 12.9146 15.6927 12.9146 15.9785C12.9146 16.2574 13.1344 16.4887 13.4142 16.4887H15.2594C15.5392 16.4887 15.759 16.2574 15.759 15.9785C15.759 15.6927 15.5392 15.4682 15.2594 15.4682Z" fill="#2E4457"/>
<rect x="14" width="16" height="16" rx="8" fill="#EE6F44"/>
<path d="M20.5266 6.91C20.5266 5.91 21.0666 5.25 21.7666 5.25C22.7066 5.25 23.2666 6.05 23.3666 7.56C22.8966 8.25 22.3366 8.54 21.8366 8.54C20.9666 8.54 20.5266 7.9 20.5266 6.91ZM21.5666 12.13C22.9466 12.13 24.2266 10.99 24.2266 8.02C24.2266 5.69 23.1766 4.53 21.7666 4.53C20.6266 4.53 19.6666 5.49 19.6666 6.91C19.6666 8.43 20.4666 9.22 21.6866 9.22C22.2966 9.22 22.9266 8.87 23.3766 8.32C23.3066 10.59 22.4866 11.37 21.5366 11.37C21.0666 11.37 20.6166 11.16 20.3166 10.81L19.8066 11.38C20.2166 11.81 20.7766 12.13 21.5666 12.13Z" fill="white"/>
</svg>
